<svg width="40.000000" height="40.000000" viewBox="0 0 40 40" fill="none" xmlns="http://www.w3.org/2000/svg" xmlns:xlink="http://www.w3.org/1999/xlink">
	<desc>
			Created with Pixso.
	</desc>
	<defs/>
	<path id="Vector" d="M32.58 4.44C32.56 4.42 32.51 4.4 32.49 4.35C32.51 4.4 32.56 4.42 32.58 4.44Z" fill="#FFFAF7" fill-opacity="1.000000" fill-rule="nonzero"/>
	<path id="Vector" d="M32.14 4.1C32.25 4.19 32.37 4.28 32.49 4.35C32.37 4.28 32.25 4.19 32.14 4.1C32.12 4.07 32.07 4.05 32.05 4.03L32 4L32.05 4.03C32.07 4.05 32.12 4.07 32.14 4.1Z" fill="#FFFAF7" fill-opacity="1.000000" fill-rule="nonzero"/>
	<path id="Vector" d="M31.95 3.96L31.88 3.91L31.95 3.96Z" fill="#FFFAF7" fill-opacity="1.000000" fill-rule="nonzero"/>
	<path id="Vector" d="M31.7 3.77C31.72 3.8 31.72 3.8 31.74 3.82C31.74 3.8 31.72 3.8 31.7 3.77L31.65 3.75L31.7 3.77Z" fill="#FFFAF7" fill-opacity="1.000000" fill-rule="nonzero"/>
	<path id="Vector" d="M31.68 3.75C31.63 3.73 31.61 3.7 31.58 3.68C31.61 3.7 31.63 3.73 31.68 3.75Z" fill="#FFFAF7" fill-opacity="1.000000" fill-rule="nonzero"/>
	<path id="Vector" d="M31.26 3.47C31.21 3.45 31.19 3.42 31.14 3.4C31.19 3.42 31.23 3.45 31.26 3.47Z" fill="#FFFAF7" fill-opacity="1.000000" fill-rule="nonzero"/>
	<path id="Vector" d="M23.29 0.27C23.22 0.25 23.12 0.25 23.05 0.23C23.01 0.23 22.98 0.23 22.94 0.2C22.98 0.2 23.01 0.2 23.05 0.23C23.12 0.23 23.22 0.25 23.29 0.27Z" fill="#FFFAF7" fill-opacity="1.000000" fill-rule="nonzero"/>
	<path id="Vector" d="" fill="#FFFAF7" fill-opacity="1.000000" fill-rule="nonzero"/>
	<path id="Vector" d="M28.45 1.87C28.25 1.78 28.06 1.69 27.87 1.62C28.08 1.69 28.27 1.78 28.45 1.87Z" fill="#FFFAF7" fill-opacity="1.000000" fill-rule="nonzero"/>
	<path id="Vector" d="M30.77 3.15C30.82 3.17 30.86 3.19 30.89 3.22C30.86 3.19 30.82 3.17 30.77 3.15Z" fill="#FFFAF7" fill-opacity="1.000000" fill-rule="nonzero"/>
	<path id="Vector" d="M26.07 0.92C26.02 0.9 25.97 0.9 25.93 0.88C25.88 0.85 25.84 0.85 25.79 0.83C25.84 0.85 25.88 0.85 25.93 0.88C25.95 0.9 26 0.92 26.07 0.92Z" fill="#FFFAF7" fill-opacity="1.000000" fill-rule="nonzero"/>
	<path id="Vector" d="M25.3 0.71C25.28 0.69 25.26 0.69 25.23 0.69L25.21 0.69L25.23 0.69C25.26 0.69 25.28 0.69 25.3 0.71Z" fill="#FFFAF7" fill-opacity="1.000000" fill-rule="nonzero"/>
	<path id="Vector" d="" fill="#FFFAF7" fill-opacity="1.000000" fill-rule="nonzero"/>
	<path id="Vector" d="M27.74 1.55C27.8 1.57 27.85 1.59 27.87 1.62C27.83 1.59 27.8 1.57 27.74 1.55Z" fill="#FFFAF7" fill-opacity="1.000000" fill-rule="nonzero"/>
	<path id="Vector" d="M30.17 2.78L30.15 2.78L30.17 2.78Z" fill="#FFFAF7" fill-opacity="1.000000" fill-rule="nonzero"/>
	<path id="Vector" d="M30.26 2.82L30.35 2.89C30.42 2.94 30.49 2.96 30.54 3.01C30.47 2.96 30.42 2.94 30.35 2.89L30.26 2.82C30.24 2.82 30.24 2.8 30.22 2.8C30.24 2.82 30.24 2.82 30.26 2.82Z" fill="#FFFAF7" fill-opacity="1.000000" fill-rule="nonzero"/>
	<path id="Vector" d="M32.74 4.58C32.69 4.54 32.65 4.51 32.6 4.47C32.65 4.51 32.69 4.54 32.74 4.58Z" fill="#FFFAF7" fill-opacity="1.000000" fill-rule="nonzero"/>
	<path id="Vector" d="M29.98 2.66C30.03 2.68 30.08 2.71 30.12 2.73C30.08 2.71 30.03 2.68 29.98 2.66L29.96 2.64C29.94 2.64 29.94 2.61 29.91 2.61C29.94 2.61 29.94 2.64 29.96 2.64L29.98 2.66Z" fill="#FFFAF7" fill-opacity="1.000000" fill-rule="nonzero"/>
	<path id="Vector" d="M28.5 1.9L28.66 1.99C28.73 2.01 28.8 2.06 28.85 2.08C28.78 2.06 28.71 2.01 28.66 1.99L28.5 1.9Z" fill="#FFFAF7" fill-opacity="1.000000" fill-rule="nonzero"/>
	<path id="Vector" d="M27.02 1.27C27.16 1.32 27.32 1.39 27.5 1.45C27.53 1.45 27.53 1.45 27.55 1.48C27.53 1.48 27.53 1.48 27.5 1.45C27.32 1.39 27.16 1.32 27.02 1.27L26.92 1.25L26.9 1.25L26.92 1.25L27.02 1.27Z" fill="#FFFAF7" fill-opacity="1.000000" fill-rule="nonzero"/>
	<path id="Vector" d="M0.18 17.26L0.18 17.28L0.18 17.26Z" fill="#FFFAF7" fill-opacity="1.000000" fill-rule="nonzero"/>
	<path id="Vector" d="M0.18 17.28L0.18 17.31L0.18 17.28Z" fill="#FFFAF7" fill-opacity="1.000000" fill-rule="nonzero"/>
	<path id="Vector" d="M0.2 17.1C0.2 17.08 0.2 17.03 0.23 17.01L0.23 16.98L0.23 17.01C0.2 17.03 0.2 17.05 0.2 17.1Z" fill="#FFFAF7" fill-opacity="1.000000" fill-rule="nonzero"/>
	<path id="Vector" d="M0.2 17.12C0.2 17.14 0.2 17.17 0.2 17.19L0.2 17.24L0.2 17.19C0.2 17.17 0.2 17.14 0.2 17.12Z" fill="#FFFAF7" fill-opacity="1.000000" fill-rule="nonzero"/>
	<path id="Vector" d="M0.11 17.77C0.11 17.75 0.11 17.72 0.11 17.7C0.13 17.72 0.11 17.75 0.11 17.77Z" fill="#FFFAF7" fill-opacity="1.000000" fill-rule="nonzero"/>
	<path id="Vector" d="M0.02 18.88L0.02 19L0.02 18.88Z" fill="#FFFAF7" fill-opacity="1.000000" fill-rule="nonzero"/>
	<path id="Vector" d="M0.06 18.28C0.06 18.3 0.06 18.33 0.06 18.35C0.06 18.37 0.06 18.37 0.06 18.4C0.06 18.37 0.06 18.37 0.06 18.35C0.06 18.33 0.06 18.3 0.06 18.28Z" fill="#FFFAF7" fill-opacity="1.000000" fill-rule="nonzero"/>
	<path id="Vector" d="M0.04 18.54L0.04 18.51C0.04 18.51 0.04 18.51 0.04 18.54C0.04 18.6 0.02 18.7 0.02 18.77C0.04 18.67 0.04 18.6 0.04 18.54Z" fill="#FFFAF7" fill-opacity="1.000000" fill-rule="nonzero"/>
	<path id="Vector" d="M18.58 0.04C18.63 0.04 18.67 0.04 18.72 0.04C18.67 0.04 18.63 0.04 18.58 0.04Z" fill="#FFFAF7" fill-opacity="1.000000" fill-rule="nonzero"/>
	<path id="Vector" d="M10.45 26.72C10.45 26.74 10.47 26.76 10.47 26.76C10.45 26.76 10.45 26.74 10.45 26.72Z" fill="#FFFAF7" fill-opacity="1.000000" fill-rule="nonzero"/>
	<path id="Vector" d="M20.74 0.02C21.18 0.04 21.64 0.06 22.08 0.11C21.64 0.06 21.2 0.02 20.74 0.02Z" fill="#FFFAF7" fill-opacity="1.000000" fill-rule="nonzero"/>
	<path id="Vector" d="M24.19 0.44C24.33 0.46 24.44 0.48 24.56 0.53C24.44 0.48 24.31 0.46 24.19 0.44Z" fill="#FFFAF7" fill-opacity="1.000000" fill-rule="nonzero"/>
	<path id="Vector" d="M28.89 2.08C29.2 2.22 29.47 2.38 29.75 2.54C29.47 2.38 29.2 2.22 28.89 2.08Z" fill="#FFFAF7" fill-opacity="1.000000" fill-rule="nonzero"/>
	<path id="Vector" d="M33.02 4.82C32.97 4.79 32.95 4.75 32.9 4.72L32.83 4.65L32.9 4.72C32.95 4.75 33 4.79 33.02 4.82Z" fill="#FFFAF7" fill-opacity="1.000000" fill-rule="nonzero"/>
	<path id="Vector" d="M13.46 8.71C15.17 6.88 17.26 5.44 19.62 4.54C20.34 4.26 21.06 4.03 21.8 3.87C21.06 4.05 20.34 4.26 19.62 4.54C17.24 5.46 15.15 6.88 13.46 8.71Z" fill="#FFFAF7" fill-opacity="1.000000" fill-rule="nonzero"/>
	<path id="Vector" d="M17.01 34.18C15.04 33 13.32 31.4 11.98 29.47C11.49 28.78 11.07 28.06 10.7 27.3C11.07 28.04 11.49 28.78 11.98 29.47C13.32 31.37 15.04 32.97 17.01 34.18Z" fill="#FFFAF7" fill-opacity="1.000000" fill-rule="nonzero"/>
	<path id="Vector" d="M0 19.83C0 19.86 0 19.88 0 19.9C0 19.93 0 19.93 0 19.95C0 19.93 0 19.93 0 19.9L0 19.83Z" fill="#FFFAF7" fill-opacity="1.000000" fill-rule="nonzero"/>
	<path id="Vector" d="M4.28 30.26C1.57 27.57 0.06 24 0 20.2L0 20.16L0 20.09C0 20.06 0 20.04 0 20.04C0 20.06 0 20.09 0 20.09C0 20.11 0 20.13 0 20.16L0 20.2C0.06 24 1.57 27.57 4.28 30.26C6.99 32.93 10.59 34.41 14.41 34.41C15.01 34.41 15.61 34.36 16.22 34.29C15.61 34.36 15.01 34.41 14.41 34.41C10.59 34.41 6.99 32.93 4.28 30.26Z" fill="#FFFAF7" fill-opacity="1.000000" fill-rule="nonzero"/>
	<path id="Vector" d="M33.46 5.21C33.51 5.26 33.53 5.28 33.58 5.3C33.55 5.28 33.51 5.26 33.46 5.21L33.41 5.16L33.39 5.14L33.41 5.16L33.46 5.21Z" fill="#FFFAF7" fill-opacity="1.000000" fill-rule="nonzero"/>
	<path id="Vector" d="" fill="#FFFAF7" fill-opacity="1.000000" fill-rule="nonzero"/>
	<path id="Vector" d="M34.02 5.72C33.99 5.7 33.97 5.67 33.95 5.65C33.92 5.63 33.88 5.58 33.85 5.56C33.88 5.58 33.92 5.63 33.95 5.65C33.95 5.67 33.99 5.7 34.02 5.72Z" fill="#FFFAF7" fill-opacity="1.000000" fill-rule="nonzero"/>
	<path id="Vector" d="M33.71 5.44C33.69 5.42 33.65 5.39 33.62 5.35C33.65 5.37 33.67 5.42 33.71 5.44Z" fill="#FFFAF7" fill-opacity="1.000000" fill-rule="nonzero"/>
	<path id="Vector" d="" fill="#FFFAF7" fill-opacity="1.000000" fill-rule="nonzero"/>
	<path id="Vector" d="M0 19.58L0 19.55C0 19.53 0 19.53 0 19.51C0 19.44 0 19.35 0 19.28C0 19.25 0 19.23 0 19.23C0 19.25 0 19.28 0 19.28C0 19.37 0 19.44 0 19.51C0 19.53 0 19.53 0 19.55L0 19.58C0 19.65 0 19.72 0 19.76L0 19.81L0 19.76C0 19.72 0 19.65 0 19.58Z" fill="#FFFAF7" fill-opacity="1.000000" fill-rule="nonzero"/>
	<path id="Vector" d="M0.23 16.94L0.23 16.98C0.23 17.01 0.23 17.05 0.2 17.08L0.2 17.1C0.2 17.12 0.2 17.14 0.2 17.17L0.2 17.21L0.2 17.24L0.2 17.26L0.2 17.28C0.2 17.35 0.18 17.42 0.18 17.49C0.18 17.56 0.16 17.61 0.16 17.68C0.16 17.7 0.16 17.72 0.16 17.75C0.16 17.82 0.13 17.89 0.13 17.96C0.13 18 0.13 18.07 0.11 18.12L0.11 18.16C0.11 18.19 0.11 18.21 0.11 18.23C0.11 18.26 0.11 18.28 0.11 18.3C0.11 18.33 0.11 18.33 0.11 18.35C0.11 18.37 0.11 18.37 0.11 18.4C0.11 18.42 0.11 18.44 0.11 18.47L0.11 18.49C0.11 18.56 0.09 18.65 0.09 18.72C0.09 18.77 0.09 18.79 0.09 18.84C0.09 18.88 0.09 18.91 0.09 18.95C0.09 18.95 0.09 18.95 0.09 18.98L0.09 19L0.09 19.02L0.09 19.04C0.09 19.09 0.09 19.14 0.09 19.18C0.09 19.21 0.09 19.23 0.09 19.23C0.09 19.32 0.09 19.39 0.09 19.46C0.09 19.49 0.09 19.49 0.09 19.51L0.09 19.53C0.09 19.6 0.09 19.67 0.09 19.72L0.09 19.76L0.09 19.79L0.09 19.86C0 19.93 0 19.93 0 19.95C0 19.97 0 19.97 0 20C0 20.02 0 20.02 0 20.04C0 20.06 0 20.09 0 20.09L0 20.16L0 20.2C0.04 24 1.57 27.57 4.28 30.24C6.99 32.9 10.59 34.39 14.41 34.39C15.01 34.39 15.61 34.34 16.22 34.27C16.5 34.25 16.75 34.2 17.03 34.15C15.06 32.97 13.34 31.37 12 29.45C11.51 28.76 11.1 28.04 10.73 27.27C10.63 27.11 10.56 26.92 10.49 26.76C10.49 26.74 10.47 26.72 10.47 26.72C9.54 24.61 9.06 22.34 9.06 20C9.06 16.59 10.08 13.32 12.02 10.52C12.46 9.87 12.95 9.26 13.48 8.71C15.2 6.88 17.28 5.44 19.65 4.54C20.37 4.26 21.08 4.03 21.83 3.87C23.05 3.56 24.33 3.42 25.63 3.42C28.64 3.42 31.54 4.24 34.06 5.72C34.04 5.7 34.02 5.67 33.99 5.65C33.97 5.63 33.92 5.58 33.9 5.56L33.88 5.53C33.85 5.51 33.81 5.49 33.78 5.44C33.76 5.42 33.71 5.39 33.69 5.35C33.69 5.35 33.69 5.35 33.67 5.33C33.62 5.3 33.6 5.26 33.55 5.23L33.51 5.19L33.48 5.16C33.44 5.12 33.39 5.07 33.32 5.02C33.25 4.98 33.2 4.93 33.16 4.88C33.14 4.86 33.11 4.86 33.11 4.84C33.07 4.82 33.04 4.77 33 4.75L32.93 4.68L32.88 4.63L32.86 4.61L32.83 4.58C32.79 4.54 32.74 4.51 32.69 4.47C32.67 4.44 32.63 4.42 32.6 4.38C32.49 4.28 32.37 4.19 32.28 4.12C32.25 4.1 32.21 4.07 32.19 4.05L32.14 4.03L32.12 4C32.12 4 32.12 4 32.09 4L32.02 3.96L32 3.93L31.91 3.87L31.88 3.84C31.86 3.82 31.86 3.82 31.84 3.8L31.81 3.77C31.79 3.75 31.74 3.73 31.72 3.7L31.7 3.68C31.61 3.61 31.54 3.56 31.44 3.49C31.4 3.47 31.37 3.45 31.33 3.42L31.3 3.4C31.26 3.36 31.19 3.33 31.14 3.29C31.12 3.29 31.12 3.26 31.1 3.26C31.05 3.24 31 3.22 30.98 3.19C30.91 3.15 30.86 3.12 30.79 3.08C30.73 3.03 30.68 3.01 30.61 2.96L30.52 2.89C30.49 2.89 30.49 2.87 30.47 2.87C30.45 2.87 30.42 2.85 30.4 2.85C30.38 2.85 30.38 2.82 30.35 2.82C30.31 2.8 30.26 2.78 30.22 2.75L30.19 2.73C30.17 2.73 30.17 2.71 30.15 2.71C30.1 2.68 30.05 2.66 30.03 2.64C30.03 2.64 30.03 2.64 30.01 2.64C29.73 2.47 29.43 2.34 29.15 2.17L29.13 2.17C29.06 2.15 28.99 2.1 28.94 2.08L28.5 1.9C28.5 1.9 28.5 1.9 28.48 1.9C28.27 1.8 28.08 1.71 27.9 1.64C27.85 1.62 27.8 1.59 27.76 1.59L27.74 1.59L27.71 1.59L27.64 1.57C27.62 1.57 27.6 1.55 27.55 1.55C27.53 1.55 27.53 1.55 27.5 1.52C27.32 1.46 27.16 1.39 27.02 1.34L26.92 1.32L26.9 1.32L26.81 1.29C26.55 1.2 26.32 1.11 26.04 1.04C26.04 1.04 26.04 1.04 26.02 1.04C25.97 1.01 25.93 1.01 25.88 0.99C25.84 0.97 25.79 0.97 25.74 0.95C25.72 0.95 25.67 0.92 25.65 0.92C25.53 0.9 25.44 0.85 25.33 0.83C25.3 0.83 25.3 0.83 25.28 0.83C25.28 0.69 25.26 0.69 25.23 0.69L25.21 0.69L25.19 0.69C24.98 0.64 24.77 0.57 24.54 0.53C24.42 0.5 24.28 0.48 24.17 0.44C23.96 0.39 23.73 0.34 23.52 0.3C23.45 0.27 23.36 0.27 23.29 0.25C23.22 0.23 23.12 0.23 23.05 0.2C23.01 0.2 22.98 0.2 22.94 0.18C22.89 0.18 22.85 0.16 22.8 0.16C22.57 0.13 22.34 0.09 22.1 0.06C21.66 0.02 21.2 0 20.76 -0.03C20.5 0 20.25 0 20 0C19.58 0 19.14 0.02 18.72 0.04C18.67 0.04 18.63 0.04 18.58 0.04C18.12 0.06 17.65 0.11 17.19 0.18C17.1 0.2 17.03 0.2 16.94 0.23L0.23 16.94Z" fill="#005FA3" fill-opacity="1.000000" fill-rule="nonzero"/>
	<path id="Vector" d="M39.76 23.03L39.76 23.01C39.76 22.98 39.76 22.96 39.79 22.92L39.79 22.89C39.79 22.85 39.81 22.82 39.81 22.78L39.81 22.75L39.81 22.73C39.81 22.71 39.81 22.71 39.81 22.71L39.83 22.59L39.86 22.5C39.86 22.41 39.88 22.34 39.88 22.27C39.88 22.2 39.9 22.13 39.9 22.06C39.9 21.99 39.93 21.94 39.93 21.9L39.93 21.85C39.93 21.8 39.93 21.78 39.93 21.73L39.93 21.71L39.93 21.69C39.93 21.64 39.93 21.59 39.95 21.52L39.95 21.5C39.95 21.43 39.97 21.36 39.97 21.27C39.97 21.2 39.97 21.11 40 21.04L40 21.01L40 20.99L40 20.97C40 20.9 40 20.83 40 20.78C40 20.69 40 20.62 40 20.53L40 20.48C40 20.41 40 20.37 40 20.3L40 20.16C40 20.11 40 20.06 40 20C40 19.95 40 19.88 40 19.83L40 19.79C39.95 15.99 38.42 12.42 35.71 9.75C33 7.09 29.4 5.6 25.58 5.6C24.7 5.6 23.82 5.67 22.98 5.84C24.95 7.02 26.67 8.62 28.01 10.54C29.96 13.32 30.98 16.59 30.98 20.02C30.98 23.42 29.96 26.69 28.01 29.5C26.11 32.21 23.47 34.29 20.39 35.48C18.49 36.22 16.47 36.59 14.41 36.59C11.4 36.59 8.5 35.78 5.97 34.29L6 34.29C6.02 34.32 6.02 34.32 6.04 34.34L6.09 34.39C6.11 34.41 6.16 34.46 6.18 34.48C6.23 34.53 6.3 34.6 6.37 34.64C6.41 34.69 6.46 34.71 6.48 34.76C6.55 34.83 6.62 34.9 6.72 34.97C6.76 35.01 6.81 35.06 6.85 35.11L6.88 35.13L7.02 35.24L7.04 35.27C7.09 35.29 7.11 35.34 7.16 35.36L7.18 35.38L7.2 35.41C7.23 35.43 7.27 35.48 7.32 35.5L7.34 35.5L7.36 35.5C7.39 35.52 7.43 35.55 7.46 35.57C7.57 35.66 7.67 35.73 7.78 35.82C7.8 35.85 7.83 35.87 7.85 35.87C7.87 35.89 7.9 35.92 7.94 35.94C7.97 35.96 7.97 35.96 7.99 35.96L8.01 35.99C8.06 36.01 8.11 36.06 8.15 36.08L8.2 36.1C8.22 36.12 8.25 36.12 8.27 36.15C8.29 36.17 8.34 36.19 8.36 36.22L8.41 36.24C8.5 36.31 8.57 36.36 8.66 36.43C8.71 36.45 8.73 36.47 8.78 36.5L8.8 36.52L8.89 36.59L8.99 36.66C9.03 36.68 9.08 36.73 9.15 36.75C9.2 36.77 9.26 36.82 9.31 36.84L9.5 36.84L9.73 37.05C9.75 37.08 9.8 37.1 9.84 37.12C9.91 37.17 9.98 37.21 10.05 37.24C10.1 37.26 10.17 37.31 10.22 37.33C10.52 37.49 10.82 37.65 11.12 37.79C11.19 37.82 11.26 37.86 11.33 37.89C11.33 37.89 11.35 37.89 11.35 37.91C11.42 37.93 11.47 37.98 11.54 38C11.72 38.09 11.91 38.19 12.12 38.26C12.16 38.28 12.21 38.3 12.25 38.33C12.28 38.33 12.28 38.35 12.3 38.35C12.37 38.37 12.42 38.4 12.49 38.42C12.65 38.49 12.81 38.54 12.97 38.6C13.02 38.63 13.09 38.65 13.14 38.67C13.39 38.77 13.65 38.86 13.88 38.93C13.92 38.95 13.97 38.95 14.02 38.98C14.09 39 14.15 39.02 14.25 39.04L14.32 39.07C14.41 39.09 14.5 39.11 14.57 39.14C14.62 39.16 14.66 39.16 14.71 39.18C15.27 39.32 15.82 39.46 16.38 39.55C16.45 39.58 16.52 39.58 16.61 39.6C16.7 39.62 16.77 39.62 16.84 39.65C16.91 39.67 17.01 39.67 17.08 39.67C18 39.81 18.93 39.86 19.88 39.86C20.81 39.86 21.76 39.79 22.68 39.67L22.71 39.67C22.78 39.67 22.85 39.65 22.94 39.65L39.65 22.94C39.76 23.03 39.76 23.03 39.76 23.03Z" fill="#222222" fill-opacity="1.000000" fill-rule="nonzero"/>
</svg>
