<svg width="17.427429" height="30.000000" viewBox="0 0 17.4274 30" fill="none" xmlns="http://www.w3.org/2000/svg" xmlns:xlink="http://www.w3.org/1999/xlink">
	<desc>
			Created with Pixso.
	</desc>
	<defs/>
	<path id="Vector" d="M15.4 0L2.02 0C0.91 0 0 0.91 0 2.02L0 27.97C0 29.08 0.91 30 2.02 30L15.4 30C16.51 30 17.42 29.08 17.42 27.97L17.42 2.02C17.42 0.91 16.51 0 15.4 0ZM6.57 1.46L10.85 1.46C10.98 1.46 11.09 1.57 11.09 1.7C11.09 1.84 10.98 1.95 10.85 1.95L6.57 1.95C6.43 1.95 6.32 1.84 6.32 1.7C6.32 1.57 6.43 1.46 6.57 1.46ZM8.71 28.98C8.15 28.98 7.7 28.53 7.7 27.97C7.7 27.41 8.15 26.95 8.71 26.95C9.27 26.95 9.72 27.41 9.72 27.97C9.72 28.53 9.27 28.98 8.71 28.98ZM16.01 26.25L1.4 26.25L1.4 3.21L16.01 3.21L16.01 26.25Z" fill="#FFFFFF" fill-opacity="1.000000" fill-rule="nonzero"/>
</svg>
