<svg width="39.420929" height="30.000000" viewBox="0 0 39.4209 30" fill="none" xmlns="http://www.w3.org/2000/svg" xmlns:xlink="http://www.w3.org/1999/xlink">
	<desc>
			Created with Pixso.
	</desc>
	<defs/>
	<rect id="Frame" width="39.420906" height="30.000000" fill="#FFFFFF" fill-opacity="0"/>
	<path id="Vector" d="M34.6 0L4.82 0C2.16 0 0 2.16 0 4.82L0 25.17C0 27.83 2.16 30 4.82 30L34.6 30C37.25 30 39.42 27.83 39.42 25.17L39.42 4.82C39.42 2.16 37.26 0 34.6 0ZM37.22 25.17C37.22 26.62 36.05 27.79 34.6 27.79L4.82 27.79C3.37 27.79 2.2 26.62 2.2 25.17L2.2 4.82C2.2 3.38 3.37 2.21 4.82 2.21L34.6 2.21C36.04 2.21 37.21 3.38 37.21 4.82L37.21 25.17L37.22 25.17Z" fill="#FFFFFF" fill-opacity="1.000000" fill-rule="nonzero"/>
	<path id="Vector" d="M24.86 14.74L34.5 6.1C34.95 5.69 34.99 5 34.58 4.54C34.17 4.09 33.48 4.05 33.02 4.46L19.73 16.39L17.13 14.07C17.12 14.07 17.12 14.06 17.12 14.05C17.06 13.99 17 13.94 16.94 13.89L6.38 4.45C5.92 4.04 5.23 4.08 4.82 4.54C4.42 5 4.46 5.69 4.91 6.1L14.67 14.82L4.95 23.91C4.51 24.33 4.49 25.02 4.91 25.47C5.13 25.7 5.42 25.82 5.71 25.82C5.98 25.82 6.25 25.72 6.46 25.53L16.32 16.3L19 18.69C19.21 18.88 19.47 18.97 19.73 18.97C19.99 18.97 20.26 18.87 20.47 18.68L23.22 16.22L33.02 25.53C33.23 25.74 33.51 25.84 33.78 25.84C34.07 25.84 34.36 25.72 34.58 25.49C34.99 25.05 34.98 24.35 34.54 23.93L24.86 14.74Z" fill="#FFFFFF" fill-opacity="1.000000" fill-rule="nonzero"/>
</svg>
