<svg width="23.000000" height="17.000000" viewBox="0 0 23 17" fill="none" xmlns="http://www.w3.org/2000/svg" xmlns:xlink="http://www.w3.org/1999/xlink">
	<desc>
			Created with Pixso.
	</desc>
	<defs/>
	<rect id="Frame" width="22.338512" height="17.000000" fill="#FFFFFF" fill-opacity="0"/>
	<path id="Vector" d="M19.61 0L2.73 0C1.22 0 0 1.22 0 2.73L0 14.26C0 15.77 1.22 17 2.73 17L19.6 17C21.11 17 22.33 15.77 22.33 14.26L22.33 2.73C22.34 1.22 21.11 0 19.61 0ZM21.09 14.26C21.09 15.08 20.42 15.75 19.61 15.75L2.73 15.75C1.91 15.75 1.24 15.08 1.24 14.26L1.24 2.73C1.24 1.91 1.91 1.25 2.73 1.25L19.6 1.25C20.42 1.25 21.09 1.91 21.09 2.73L21.09 14.26L21.09 14.26Z" fill="#005FA3" fill-opacity="1.000000" fill-rule="nonzero"/>
	<path id="Vector" d="M14.08 8.35L19.55 3.45C19.8 3.22 19.82 2.83 19.59 2.57C19.36 2.32 18.97 2.29 18.71 2.52L11.18 9.29L9.71 7.97C9.7 7.97 9.7 7.96 9.7 7.96C9.66 7.93 9.63 7.9 9.6 7.87L3.61 2.52C3.36 2.29 2.96 2.31 2.73 2.57C2.5 2.83 2.52 3.22 2.78 3.45L8.31 8.39L2.81 13.55C2.56 13.78 2.54 14.18 2.78 14.43C2.9 14.56 3.07 14.63 3.24 14.63C3.39 14.63 3.54 14.57 3.66 14.46L9.25 9.23L10.76 10.59C10.88 10.7 11.03 10.75 11.18 10.75C11.33 10.75 11.48 10.69 11.6 10.58L13.15 9.19L18.71 14.47C18.83 14.58 18.99 14.64 19.14 14.64C19.31 14.64 19.47 14.57 19.59 14.44C19.83 14.19 19.82 13.8 19.57 13.56L14.08 8.35Z" fill="#005FA3" fill-opacity="1.000000" fill-rule="nonzero"/>
</svg>
