<svg width="17.000000" height="17.000000" viewBox="0 0 17 17" fill="none" xmlns="http://www.w3.org/2000/svg" xmlns:xlink="http://www.w3.org/1999/xlink">
	<desc>
			Created with Pixso.
	</desc>
	<defs>
		<clipPath id="clip17_22">
			<rect id="placeholder" width="17.000000" height="17.000000" fill="white" fill-opacity="0"/>
		</clipPath>
	</defs>
	<rect id="placeholder" width="17.000000" height="17.000000" fill="#FFFFFF" fill-opacity="0"/>
	<g clip-path="url(#clip17_22)">
		<path id="Vector" d="M8.48 0C5.05 0 2.25 2.79 2.25 6.23C2.25 7.8 3.25 10.03 5.21 12.85C6.64 14.91 8.05 16.51 8.11 16.58L8.48 17L8.86 16.58C8.91 16.51 10.32 14.91 11.76 12.85C13.72 10.03 14.71 7.8 14.71 6.23C14.71 2.79 11.92 0 8.48 0ZM10.95 12.28C9.98 13.67 9 14.87 8.48 15.48C7.97 14.87 6.99 13.68 6.02 12.29C4.21 9.67 3.25 7.58 3.25 6.23C3.25 3.34 5.6 0.99 8.48 0.99C11.37 0.99 13.72 3.34 13.72 6.23C13.72 7.58 12.76 9.67 10.95 12.28Z" fill="#005FA3" fill-opacity="1.000000" fill-rule="nonzero"/>
		<path id="Vector" d="M8.48 2.3C6.46 2.3 4.81 3.95 4.81 5.97C4.81 8 6.46 9.65 8.48 9.65C10.51 9.65 12.16 8 12.16 5.97C12.16 3.95 10.51 2.3 8.48 2.3ZM8.48 8.66C7 8.66 5.8 7.45 5.8 5.97C5.8 4.5 7 3.29 8.48 3.29C9.96 3.29 11.17 4.5 11.17 5.97C11.17 7.45 9.96 8.66 8.48 8.66Z" fill="#005FA3" fill-opacity="1.000000" fill-rule="nonzero"/>
	</g>
</svg>
