<svg width="10.000000" height="18.000000" viewBox="0 0 10 18" fill="none" xmlns="http://www.w3.org/2000/svg" xmlns:xlink="http://www.w3.org/1999/xlink">
	<desc>
			Created with Pixso.
	</desc>
	<defs/>
	<path id="Vector" d="M8.83 0L1.16 0C0.52 0 0 0.52 0 1.16L0 16.05C0 16.69 0.52 17.21 1.16 17.21L8.83 17.21C9.47 17.21 10 16.69 10 16.05L10 1.16C10 0.52 9.47 0 8.83 0ZM3.77 0.83L6.22 0.83C6.3 0.83 6.36 0.9 6.36 0.97C6.36 1.05 6.3 1.11 6.22 1.11L3.77 1.11C3.69 1.11 3.63 1.05 3.63 0.97C3.63 0.9 3.69 0.83 3.77 0.83ZM5 16.63C4.67 16.63 4.41 16.37 4.41 16.05C4.41 15.72 4.67 15.46 5 15.46C5.32 15.46 5.58 15.72 5.58 16.05C5.58 16.37 5.32 16.63 5 16.63ZM9.19 15.06L0.8 15.06L0.8 1.84L9.19 1.84L9.19 15.06Z" fill="#005FA3" fill-opacity="1.000000" fill-rule="nonzero"/>
</svg>
