<svg width="17.000000" height="17.000000" viewBox="0 0 17 17" fill="none" xmlns="http://www.w3.org/2000/svg" xmlns:xlink="http://www.w3.org/1999/xlink">
	<desc>
			Created with Pixso.
	</desc>
	<defs/>
	<rect id="Frame" width="17.000000" height="17.000000" fill="#FFFFFF" fill-opacity="0"/>
	<path id="Vector" d="M8.5 0C3.8 0 0 3.8 0 8.5C0 13.19 3.8 17 8.5 17C13.19 17 17 13.19 17 8.5C16.99 3.8 13.19 0 8.5 0ZM8.86 16.25L8.86 14.75C8.86 14.55 8.7 14.39 8.5 14.39C8.29 14.39 8.13 14.55 8.13 14.75L8.13 16.25C4.13 16.06 0.93 12.86 0.74 8.86L2.24 8.86C2.44 8.86 2.6 8.7 2.6 8.5C2.6 8.29 2.44 8.13 2.24 8.13L0.74 8.13C0.93 4.13 4.13 0.93 8.13 0.74L8.13 2.24C8.13 2.44 8.29 2.6 8.5 2.6C8.7 2.6 8.86 2.44 8.86 2.24L8.86 0.74C12.86 0.93 16.06 4.13 16.25 8.13L14.75 8.13C14.55 8.13 14.39 8.29 14.39 8.5C14.39 8.7 14.55 8.86 14.75 8.86L14.76 8.86L16.25 8.86C16.06 12.86 12.86 16.06 8.86 16.25Z" fill="#005FA3" fill-opacity="1.000000" fill-rule="nonzero"/>
	<path id="Vector" d="M12.34 11.89L8.86 8.35L8.86 4.67C8.86 4.46 8.7 4.3 8.5 4.3C8.29 4.3 8.13 4.46 8.13 4.67L8.13 8.5C8.13 8.59 8.17 8.68 8.24 8.75L11.82 12.4C11.96 12.54 12.19 12.54 12.34 12.4C12.48 12.26 12.48 12.03 12.34 11.89Z" fill="#005FA3" fill-opacity="1.000000" fill-rule="nonzero"/>
</svg>
